<?xml version="1.0" encoding="UTF-8"?> <svg xmlns="http://www.w3.org/2000/svg" viewBox="0 0 145.21 31.6"><defs><style>.cls-1{fill:#2c435b;}.cls-2{fill:#2d435b;}.cls-3{fill:#96cca6;}.cls-4{fill:#f49e7e;}</style></defs><g id="Ebene_2" data-name="Ebene 2"><g id="Ebene_1-2" data-name="Ebene 1"><path class="cls-1" d="M38.84,17.73a6.34,6.34,0,0,1,1.24,4.06,7,7,0,0,1-1.22,4.26,4.43,4.43,0,0,1-5.63,1.15,4.54,4.54,0,0,1-1.08-1.13v1.38H29.31V12.53H32.2v5.31a4.17,4.17,0,0,1,1.21-1.17,3.6,3.6,0,0,1,2-.51A4.11,4.11,0,0,1,38.84,17.73Zm-2.41,6.73a4.13,4.13,0,0,0,.62-2.37,5.47,5.47,0,0,0-.3-1.95,2.15,2.15,0,0,0-2.15-1.46,2.18,2.18,0,0,0-2.18,1.43,5.46,5.46,0,0,0-.31,2,4.1,4.1,0,0,0,.64,2.35,2.17,2.17,0,0,0,1.93.93A2,2,0,0,0,36.43,24.46Z"></path><path class="cls-1" d="M45,16.4v6.66a3.45,3.45,0,0,0,.22,1.42,1.54,1.54,0,0,0,1.55.84,2,2,0,0,0,2-1.19A4.33,4.33,0,0,0,49,22.41v-6H52V27.45H49.16V25.89a3.55,3.55,0,0,0-.2.31,2.05,2.05,0,0,1-.39.44,3.8,3.8,0,0,1-1.31.83,4.38,4.38,0,0,1-1.48.23,3.31,3.31,0,0,1-3.3-1.77A6.88,6.88,0,0,1,42,23.06V16.4Z"></path><path class="cls-1" d="M57.75,15.08H54.81V12.42h2.94ZM54.81,16.4h2.94V27.45H54.81Z"></path><path class="cls-1" d="M63.49,27.45H60.6V12.51h2.89Z"></path><path class="cls-1" d="M72.17,16.58a3.53,3.53,0,0,1,1.27,1.22V12.53h2.93V27.45H73.56V25.92a3.6,3.6,0,0,1-3.38,1.88,4.07,4.07,0,0,1-3.25-1.57,6,6,0,0,1-1.33-4,7,7,0,0,1,1.3-4.45,4.25,4.25,0,0,1,3.49-1.62A3.59,3.59,0,0,1,72.17,16.58Zm.71,7.87a4,4,0,0,0,.64-2.36,3.63,3.63,0,0,0-1-2.9A2.22,2.22,0,0,0,71,18.66a2,2,0,0,0-1.86,1,4.4,4.4,0,0,0-.6,2.38,4.34,4.34,0,0,0,.61,2.45,2,2,0,0,0,1.83.91A2.12,2.12,0,0,0,72.88,24.45Z"></path><path class="cls-1" d="M78.12,20.3h5.66V23H78.12Z"></path><path class="cls-1" d="M90.29,20.73a4.7,4.7,0,0,0,1.15-.25.86.86,0,0,0,.62-.82,1,1,0,0,0-.47-.94,3.08,3.08,0,0,0-1.41-.26,1.84,1.84,0,0,0-1.47.51,2.17,2.17,0,0,0-.41,1H85.51a4.32,4.32,0,0,1,.82-2.38c.77-1,2.08-1.46,4-1.46a7.06,7.06,0,0,1,3.24.72,2.76,2.76,0,0,1,1.41,2.72v5.07c0,.35,0,.77,0,1.27a1.5,1.5,0,0,0,.18.77,1,1,0,0,0,.42.34v.42H92.41a2.75,2.75,0,0,1-.18-.63,5.42,5.42,0,0,1-.08-.66,6.19,6.19,0,0,1-1.39,1.1,4.18,4.18,0,0,1-2.12.54,3.69,3.69,0,0,1-2.5-.86,3.06,3.06,0,0,1-1-2.43,3.15,3.15,0,0,1,1.58-3,7.27,7.27,0,0,1,2.56-.71Zm1.76,1.35a2.66,2.66,0,0,1-.56.28,4.64,4.64,0,0,1-.77.2l-.66.12a4.56,4.56,0,0,0-1.33.39,1.34,1.34,0,0,0-.68,1.23,1.28,1.28,0,0,0,.42,1.07,1.55,1.55,0,0,0,1,.33,3,3,0,0,0,1.75-.55,2.31,2.31,0,0,0,.82-2Z"></path><path class="cls-1" d="M96.59,20.3h5.65V23H96.59Z"></path><path class="cls-1" d="M111.18,16.4h3.1l-4,11.05h-3l-4-11h3.25l2.3,8.15Z"></path><path class="cls-1" d="M123.12,16.63A4.47,4.47,0,0,1,125,18.26a5.43,5.43,0,0,1,.88,2.29,14.12,14.12,0,0,1,.1,2.19H118a2.65,2.65,0,0,0,1.15,2.33,2.94,2.94,0,0,0,1.6.42,2.44,2.44,0,0,0,1.6-.51,2.5,2.5,0,0,0,.6-.76h3a3.62,3.62,0,0,1-1.08,2,5.36,5.36,0,0,1-4.15,1.61,6,6,0,0,1-3.9-1.36c-1.12-.91-1.68-2.38-1.68-4.43a6,6,0,0,1,1.52-4.4,5.34,5.34,0,0,1,4-1.53A6.22,6.22,0,0,1,123.12,16.63Zm-4.32,2.49a3,3,0,0,0-.77,1.71h5a2.43,2.43,0,0,0-.77-1.74,2.52,2.52,0,0,0-1.72-.6A2.29,2.29,0,0,0,118.8,19.12Z"></path><path class="cls-1" d="M136.38,17a3.65,3.65,0,0,1,1.08,3v7.44h-3V20.73a3,3,0,0,0-.23-1.34,1.64,1.64,0,0,0-1.61-.85,2,2,0,0,0-2,1.25,4.27,4.27,0,0,0-.28,1.68v6h-2.89v-11h2.8V18a5,5,0,0,1,1.05-1.22,3.6,3.6,0,0,1,2.25-.67A4.23,4.23,0,0,1,136.38,17Z"></path><path class="cls-1" d="M139,18.56V16.5h1.54V13.42h2.86V16.5h1.79v2.06h-1.79V24.4c0,.46.05.74.17.85a1.87,1.87,0,0,0,1,.17h.57v2.16l-1.37.05a3.72,3.72,0,0,1-2.8-.71,2.15,2.15,0,0,1-.48-1.54v-6.8Z"></path><path class="cls-2" d="M1,31.6a1,1,0,0,1-.7-.29,1,1,0,0,1,0-1.41C2.76,27.37,5.77,27.55,8,27.67c.57,0,1.1.06,1.54,0s.64-.24.7-.45A1.29,1.29,0,0,0,9.81,26a1.92,1.92,0,0,1-1.06-2.1,3.32,3.32,0,0,0-.49-.14l-1.81-.43,1.34-1.27A1.37,1.37,0,0,0,8,21.83a2.73,2.73,0,0,1-.69-1.63,2.14,2.14,0,0,1,.43-1.67c0-.05.22-.21.46-.43S9.45,16.93,10,16.38c-.28-.3-.63-.68-.95-1-.8-.85-1.7-1.82-2.37-2.62-1.17-1.4-1.37-3.64-1.54-5.62-.05-.53-.09-1-.15-1.51C4.82,4.24,2.65,2.36,1.9,1.8A1,1,0,1,1,3.09.2C3.46.47,6.66,2.9,7,5.36c.07.5.11,1,.16,1.6.15,1.68.32,3.59,1.09,4.51.62.76,1.51,1.7,2.29,2.52,1.62,1.73,1.79,1.91,1.79,2.42s-.08.68-2.78,3.16l-.26.24a1.24,1.24,0,0,0,.11.59,1.54,1.54,0,0,1,.68,1.17,1.87,1.87,0,0,1-.07.67,1.4,1.4,0,0,1,.93,1.26,1.8,1.8,0,0,1-.17.71l.17.12a3.29,3.29,0,0,1,1.2,3.46,2.6,2.6,0,0,1-2.53,1.92,17.49,17.49,0,0,1-1.75,0c-2-.12-4.29-.25-6.13,1.63A1,1,0,0,1,1,31.6Z"></path><path class="cls-3" d="M20.76,13s.16,2.32-3.83,3.9L16,14.86,12.11,21l6.15.91-.41-2A5.11,5.11,0,0,0,20.76,13Z"></path><path class="cls-4" d="M12.31,24s2.22-.74,4.74,2.73l-1.79,1.4,6.93,2.27-.64-6.19-1.83.9S16.94,20.92,12.31,24Z"></path></g></g></svg> 