<?xml version="1.0" encoding="iso-8859-1"?>
<!-- Generator: Adobe Illustrator 23.1.1, SVG Export Plug-In . SVG Version: 6.00 Build 0)  -->
<svg version="1.1" id="_x31_-outline-expand" xmlns="http://www.w3.org/2000/svg" xmlns:xlink="http://www.w3.org/1999/xlink"
	 x="0px" y="0px" viewBox="0 0 64 64" style="enable-background:new 0 0 64 64;" xml:space="preserve">
<path d="M20.69,9.955l-1.146-1.639c-4.027,2.819-7.614,6.205-10.662,10.064l1.57,1.239C13.379,15.913,16.823,12.661,20.69,9.955z"/>
<path d="M58.761,32.654c-1.885-4.794-4.54-9.198-7.882-13.119l8.828-8.828c0.286-0.286,0.372-0.716,0.217-1.09
	C59.77,9.244,59.404,9,59,9h-1.057l3.87-5.419c0.218-0.305,0.247-0.706,0.076-1.039C61.718,2.209,61.375,2,61,2H48
	c-0.504,0-0.93,0.375-0.992,0.876l-1,8c-0.036,0.285,0.053,0.571,0.242,0.786C46.44,11.877,46.713,12,47,12h1.78l-0.872,4.358
	c-1.783-1.737-3.704-3.339-5.74-4.763C41.621,11.206,40.969,11,40.28,11C38.472,11,37,12.471,37,14.28v11.536
	c-1.161-0.414-2-1.514-2-2.816V2h-2v21c0,2.414,1.721,4.434,4,4.899v2.02c-1.635-0.236-3.147-1.036-4.249-2.289
	c-0.379-0.433-1.123-0.433-1.502,0c-1.102,1.254-2.614,2.053-4.249,2.289v-2.02c2.279-0.465,4-2.484,4-4.899V2h-2v21
	c0,1.302-0.839,2.402-2,2.816V14.28c0-1.809-1.472-3.28-3.28-3.28c-0.688,0-1.341,0.206-1.884,0.591
	c-6.352,4.452-11.532,10.473-14.981,17.413c-1.458,2.927-2.606,6.033-3.413,9.227C2.485,41.956,2,45.812,2,49.69v9.03
	C2,60.528,3.472,62,5.28,62h0.13c0.551,0,1.097-0.139,1.582-0.404l17.417-9.578C26.008,51.144,27,49.462,27,47.63V31.938
	c1.859-0.208,3.609-0.984,5-2.23c1.391,1.246,3.141,2.022,5,2.23V47.63c0,1.833,0.992,3.514,2.579,4.381l17.433,9.587
	C57.494,61.861,58.04,62,58.59,62h0.13c1.809,0,3.28-1.471,3.28-3.28v-9.03C62,43.815,60.91,38.083,58.761,32.654z M22.989,13.225
	C23.194,13.08,23.453,13,23.72,13c0.706,0,1.28,0.574,1.28,1.28v19.741C23.41,34.659,21.735,35,20,35
	c-4.331,0-8.413-2.111-11.062-5.649C12.236,22.941,17.074,17.371,22.989,13.225z M6.03,59.842C5.841,59.945,5.627,60,5.41,60H5.28
	C4.574,60,4,59.426,4,58.72v-9.03c0-2.336,0.205-4.66,0.57-6.954c1.887,5.74,4.697,10.382,8.147,13.428L6.03,59.842z M23.448,50.264
	l-8.855,4.869c-4.081-3.317-7.39-9.322-9.149-16.639c0.633-2.451,1.482-4.839,2.519-7.131C10.989,34.917,15.375,37,20,37
	c1.723,0,3.397-0.284,5-0.833V47.63C25,48.731,24.406,49.74,23.448,50.264z M48.133,10l0.75-6h10.174l-3.87,5.419
	c-0.218,0.305-0.247,0.706-0.076,1.039C55.282,10.791,55.625,11,56,11h0.586l-6.958,6.958l1.353-6.761
	c0.059-0.294-0.018-0.599-0.207-0.83C50.583,10.134,50.3,10,50,10H48.133z M39,47.63V14.28c0-0.706,0.574-1.28,1.28-1.28
	c0.267,0,0.525,0.08,0.736,0.229c2.31,1.616,4.462,3.465,6.42,5.489l-0.417,2.085c-0.087,0.432,0.12,0.87,0.509,1.078
	C47.677,21.961,47.839,22,48,22c0.259,0,0.515-0.101,0.707-0.293l0.753-0.753c3.073,3.631,5.528,7.695,7.304,12.107
	c-2.461,7.902-8.484,14.281-16.224,17.194C39.59,49.73,39,48.727,39,47.63z M60,58.72c0,0.706-0.574,1.28-1.28,1.28h-0.13
	c-0.217,0-0.432-0.055-0.618-0.156l-15.188-8.348c6.813-3.027,12.222-8.612,15.044-15.5C59.263,40.407,60,45,60,49.69V58.72z"/>
</svg>
